<svg xmlns="http://www.w3.org/2000/svg" aria-hidden="true" style="position:absolute;width:0;height:0;overflow:hidden">
    <defs>
        <symbol id="icon-client1" viewBox="0 0 30 16">
            <path  d="m10.857 2 2.002 1.908-3.717-.002v9.255h9.714V9.622l2 1.905V2h-10zm7.912 7.398-5.677-5.409h5.677v5.409zm-1.762 2.408H10.68V5.582h.447v5.803h5.879v.421zm-5.065 3.069-.236-.485h-.195l.342.642v.374h.176v-.374l.342-.642h-.194l-.236.485zm.869-.485h.042l.384 1.016h-.184l-.082-.238h-.393l-.082.238h-.183l.382-1.016h.117zm-.186.639h.297l-.149-.431-.149.431zm1.227-.169a.548.548 0 0 1-.083-.128.27.27 0 0 1 .011-.237.226.226 0 0 1 .093-.088.298.298 0 0 1 .14-.031c.052 0 .096.01.133.031s.066.048.086.082a.23.23 0 0 1-.034.273.432.432 0 0 1-.071.062l-.071.051.201.237a.416.416 0 0 0 .044-.19h.145c0 .049-.005.096-.015.14a.464.464 0 0 1-.074.168l.149.176h-.195l-.059-.069a.422.422 0 0 1-.262.084c-.067 0-.126-.012-.175-.037s-.087-.059-.114-.102a.275.275 0 0 1-.014-.258.357.357 0 0 1 .07-.088.966.966 0 0 1 .094-.075zm.083.103-.021.015c-.025.02-.043.039-.055.058a.18.18 0 0 0-.029.09.151.151 0 0 0 .076.139.185.185 0 0 0 .091.021.259.259 0 0 0 .164-.058l-.226-.266zm.041-.186.062-.042c.029-.02.05-.039.063-.057s.019-.043.019-.071c0-.024-.009-.046-.028-.067s-.045-.031-.079-.031a.104.104 0 0 0-.097.06.142.142 0 0 0 .004.124.394.394 0 0 0 .044.069l.012.015zm1.776.298h-.174c-.005.044-.016.082-.032.112s-.039.053-.07.069a.263.263 0 0 1-.121.024c-.041 0-.076-.008-.105-.024s-.053-.039-.073-.069c-.019-.03-.033-.065-.042-.107s-.013-.088-.013-.14v-.086c0-.054.005-.102.015-.144s.025-.078.045-.107c.02-.029.045-.051.075-.066s.065-.022.105-.022c.049 0 .088.008.119.025s.053.04.068.071a.328.328 0 0 1 .031.112h.174c-.007-.068-.026-.128-.057-.181s-.074-.094-.13-.123a.428.428 0 0 0-.205-.045c-.064 0-.121.011-.172.033s-.094.055-.13.097c-.036.042-.064.092-.084.151s-.029.125-.029.198v.084c0 .073.009.139.028.198s.047.11.082.151a.382.382 0 0 0 .299.129c.082 0 .151-.015.209-.045s.102-.07.133-.122a.401.401 0 0 0 .056-.178zm.969-.149v-.056c0-.077-.01-.145-.031-.206s-.049-.113-.086-.156c-.037-.043-.082-.076-.133-.098s-.109-.034-.172-.034c-.062 0-.119.011-.171.034s-.096.055-.133.098c-.037.043-.066.095-.087.156s-.031.129-.031.206v.056c0 .077.01.146.031.206s.05.113.088.156c.038.043.082.076.133.098s.109.033.171.033c.063 0 .12-.011.172-.033s.096-.056.133-.098c.037-.043.066-.095.086-.156s.03-.13.03-.206zm-.175-.058v.057c0 .057-.006.107-.017.151s-.026.081-.047.111-.046.052-.077.068-.065.022-.104.022c-.039 0-.073-.007-.103-.022s-.056-.038-.078-.068c-.021-.03-.038-.067-.049-.111s-.017-.094-.017-.151v-.057c0-.057.006-.107.017-.15s.027-.08.048-.11.047-.052.077-.067.065-.023.103-.023.073.008.104.023.056.037.077.067.037.066.048.11a.607.607 0 0 1 .017.15z"/>
        </symbol>
        <symbol id="icon-client2" viewBox="0 0 30 16">
            <path d="M14.318 1.696h-.039c-.06-.004-.12-.005-.18-.007h-.13a6.64 6.64 0 0 0-.37.009 8.09 8.09 0 0 0-3.005.766l-.124.06V8.85l.289-.098c.254-.087.524-.166.804-.238a9.815 9.815 0 0 1 2.313-.307v.831a7.544 7.544 0 0 0-.304.009h-.024a9.209 9.209 0 0 0-1.779.273 9.03 9.03 0 0 0-2.12.826V2.033a8.525 8.525 0 0 1 2.224-.905 8.474 8.474 0 0 1 2.096-.27h.122c.146.004.288.01.422.02.352.025.702.08 1.044.166v.818a6.407 6.407 0 0 0-1.012-.153l-.021-.002c-.071-.006-.141-.012-.207-.012zm1.44.836c.181.014.369.02.559.02a9.006 9.006 0 0 0 2.204-.283 9.07 9.07 0 0 0 2.119-.827v7.969a8.546 8.546 0 0 1-2.225.905 8.57 8.57 0 0 1-2.096.27 6.45 6.45 0 0 1-1.59-.187v-8.02a6.97 6.97 0 0 0 1.029.154zm4.055.062-.289.097c-.266.089-.534.169-.804.24a9.784 9.784 0 0 1-2.402.308c-.189 0-.362-.005-.53-.016l-.231-.015v6.508l.198.017c.184.016.373.024.564.024a7.702 7.702 0 0 0 1.892-.245 7.992 7.992 0 0 0 1.478-.531l.124-.06V2.593zM10.211 12.918a.429.429 0 0 0-.322-.13.473.473 0 0 0-.331.13.459.459 0 0 0-.126.324v1.084a.5.5 0 0 0 .043.222.379.379 0 0 0 .257.222.634.634 0 0 0 .162.023c.06.001.12-.012.175-.038a.482.482 0 0 0 .145-.1c.04-.042.072-.091.095-.145s.035-.113.035-.173v-.121h-.283v.097a.248.248 0 0 1-.017.097.169.169 0 0 1-.041.061.197.197 0 0 1-.118.041.144.144 0 0 1-.133-.058.257.257 0 0 1-.038-.145v-1.011a.336.336 0 0 1 .035-.162.143.143 0 0 1 .139-.066.156.156 0 0 1 .127.061.231.231 0 0 1 .047.145v.094h.28v-.11a.496.496 0 0 0-.13-.343zM11.894 12.905a.486.486 0 0 0-.641.001.45.45 0 0 0-.11.152.49.49 0 0 0-.041.21v1.04a.503.503 0 0 0 .041.213.423.423 0 0 0 .11.145c.043.04.094.071.15.092.054.02.111.03.169.031s.115-.01.169-.031c.056-.021.108-.052.153-.092s.082-.09.107-.145a.503.503 0 0 0 .041-.213v-1.04a.476.476 0 0 0-.148-.362zm-.132 1.402a.19.19 0 0 1-.056.151.204.204 0 0 1-.266 0 .188.188 0 0 1-.056-.151v-1.04a.19.19 0 0 1 .056-.151.204.204 0 0 1 .266 0 .188.188 0 0 1 .056.151v1.04zM14.105 14.771v-1.968h-.272l-.358 1.042h-.005l-.361-1.042h-.27v1.968h.281v-1.197h.005l.275.846h.14l.278-.846h.005v1.197h.281zM15.702 12.941a.386.386 0 0 0-.159-.108.643.643 0 0 0-.204-.031h-.418v1.968h.28v-.769h.145a.514.514 0 0 0 .253-.054.403.403 0 0 0 .154-.15.48.48 0 0 0 .064-.171c.011-.074.016-.149.015-.224a1.103 1.103 0 0 0-.027-.281.426.426 0 0 0-.103-.181zm-.144.6a.237.237 0 0 1-.026.102.16.16 0 0 1-.072.069.288.288 0 0 1-.132.025H15.2v-.669h.145a.259.259 0 0 1 .126.025.161.161 0 0 1 .066.073.299.299 0 0 1 .025.11v.131c0 .046.003.093 0 .135h-.003zM17.031 12.803h-.23l-.434 1.968h.28l.082-.423h.382l.082.423h.28l-.445-1.968zm-.259 1.277.138-.713h.005l.137.713h-.28zM18.843 13.989h-.005l-.424-1.186h-.27v1.968h.28v-1.184h.006l.429 1.184h.264v-1.968h-.28v1.186zM20.556 12.803l-.226.782h-.006l-.226-.782h-.297l.385 1.136v.832h.28v-.832l.385-1.136h-.297zM9.429 15.327h.135v.379h.092v-.379h.134v-.078h-.361v.078zM10.565 15.249l-.177.457h.098l.038-.104h.182l.039.104h.1l-.181-.457h-.098zm-.015.276.062-.169.062.169h-.124zM11.688 15.538h.106v.059a.179.179 0 0 1-.108.039.113.113 0 0 1-.097-.044.195.195 0 0 1-.034-.119c0-.102.044-.153.132-.153.023-.002.046.004.065.017s.033.033.038.056l.09-.017c-.02-.089-.084-.134-.194-.134a.226.226 0 0 0-.16.059c-.023.023-.041.05-.052.081s-.016.063-.014.095a.242.242 0 0 0 .059.171.216.216 0 0 0 .173.067.273.273 0 0 0 .194-.073v-.18h-.198v.077zM12.835 15.249h-.093v.457h.32v-.078h-.228v-.379zM13.805 15.249h-.093v.457h.093v-.457zM14.753 15.554l-.187-.305h-.09v.457h.086v-.299l.184.299h.092v-.457h-.085v.305zM15.611 15.505h.228v-.078h-.228v-.1h.245v-.078h-.338v.457h.347v-.078h-.254v-.124zM17.689 15.429h-.18v-.18h-.092v.457h.092v-.2h.18v.2h.092v-.457h-.092v.18zM18.551 15.505h.228v-.078h-.228v-.1h.246v-.078h-.338v.457h.346v-.078h-.254v-.124zM19.721 15.505c.079-.012.12-.054.12-.127a.113.113 0 0 0-.045-.102.259.259 0 0 0-.134-.027h-.194v.457h.092v-.191h.018a.123.123 0 0 1 .057.01c.013.008.025.02.033.033l.1.145h.11l-.056-.089a.323.323 0 0 0-.101-.11zm-.093-.063h-.068v-.115h.072a.227.227 0 0 1 .093.011c.007.006.012.013.015.021s.005.017.005.026a.06.06 0 0 1-.024.046.267.267 0 0 1-.093.011zM20.603 15.505h.228v-.078h-.228v-.1h.246v-.078h-.338v.457h.347v-.078h-.254v-.124z"/>
         </symbol>
         <symbol id="icon-client3" viewBox="0 0 30 16">
            <path d="M10.517 14.064c.005 0 .009.001.013.003l.011.007.063.059a.531.531 0 0 1-.177.113.69.69 0 0 1-.252.04.677.677 0 0 1-.237-.038.48.48 0 0 1-.293-.27.531.531 0 0 1-.04-.211.495.495 0 0 1 .165-.376.55.55 0 0 1 .189-.107.742.742 0 0 1 .244-.038.663.663 0 0 1 .226.034c.062.023.12.055.17.095l-.053.063-.013.011c-.006.004-.014.005-.021.005s-.016-.003-.023-.007l-.028-.017-.039-.022a.487.487 0 0 0-.219-.045.514.514 0 0 0-.175.028.367.367 0 0 0-.226.207.42.42 0 0 0-.032.167.435.435 0 0 0 .032.17.37.37 0 0 0 .219.204.492.492 0 0 0 .162.027.772.772 0 0 0 .096-.005.383.383 0 0 0 .208-.087.052.052 0 0 1 .03-.011zM12.339 13.766a.497.497 0 0 1-.162.373.545.545 0 0 1-.186.107.784.784 0 0 1-.479 0c-.07-.024-.133-.061-.185-.107s-.093-.103-.12-.164a.503.503 0 0 1 .12-.585.558.558 0 0 1 .185-.103.769.769 0 0 1 .479 0c.07.024.133.061.186.107s.092.102.119.162a.514.514 0 0 1 .043.211zm-.166 0a.442.442 0 0 0-.03-.168.349.349 0 0 0-.217-.206.563.563 0 0 0-.349 0 .373.373 0 0 0-.133.08.32.32 0 0 0-.085.126.488.488 0 0 0 0 .337.343.343 0 0 0 .218.205.577.577 0 0 0 .349 0 .344.344 0 0 0 .217-.205.442.442 0 0 0 .03-.168zM13.582 13.942l.017.038.018-.038a.347.347 0 0 1 .021-.037l.403-.626c.008-.011.015-.018.023-.02a.093.093 0 0 1 .033-.003h.119v1.018h-.141V13.458l-.405.635c-.005.01-.013.018-.024.023s-.022.009-.035.009h-.023c-.012 0-.024-.003-.035-.008s-.019-.014-.024-.023l-.417-.639v.817h-.136v-1.016h.119c.011-.001.022.001.033.003a.04.04 0 0 1 .022.02l.412.627a.335.335 0 0 1 .021.036zM15.098 13.892v.381h-.158v-1.017h.352a.756.756 0 0 1 .196.022.4.4 0 0 1 .139.063.27.27 0 0 1 .079.1.295.295 0 0 1 .027.13.28.28 0 0 1-.114.232.379.379 0 0 1-.14.067.674.674 0 0 1-.19.024l-.191-.003zm0-.109h.191a.497.497 0 0 0 .122-.015.243.243 0 0 0 .088-.044.19.19 0 0 0 .073-.153c.002-.028-.004-.057-.016-.083s-.031-.05-.055-.069a.345.345 0 0 0-.212-.055h-.191v.419zM17.218 14.275h-.125c-.012 0-.025-.003-.035-.009s-.016-.014-.021-.024l-.107-.246h-.539l-.111.246a.055.055 0 0 1-.02.023.062.062 0 0 1-.035.01H16.1l.473-1.018h.164l.48 1.018zm-.78-.378h.445l-.188-.414a.648.648 0 0 1-.035-.096l-.018.053a1.312 1.312 0 0 1-.017.043l-.186.414zM17.9 13.261a.072.072 0 0 1 .024.018l.69.768V13.256h.141v1.018h-.079c-.011 0-.022-.002-.032-.006s-.018-.011-.025-.019l-.689-.767v.792h-.141v-1.018h.084c.01 0 .019.001.028.005zM19.917 13.87v.404h-.158v-.404l-.436-.613h.141a.052.052 0 0 1 .034.009.076.076 0 0 1 .021.023l.273.396.028.047.02.043.021-.044a.44.44 0 0 1 .027-.047l.269-.398a.145.145 0 0 1 .021-.022.05.05 0 0 1 .034-.01h.143l-.437.616zM13.504 11.548l.208.019c1.064-.407 1.964-1.072 2.588-1.914s.943-1.821.919-2.817l-1.173-1.002c.238 1.06.127 2.156-.322 3.165s-1.218 1.892-2.221 2.549z"/>
            <path d="m13.085 11.501.032.005c1.071-.655 1.888-1.569 2.345-2.625s.532-2.204.217-3.297l-1.67-1.427c.676 1.173.948 2.486.784 3.786s-.755 2.534-1.707 3.557zM18.75 8.012c-.284 1.094-.973 2.081-1.965 2.814-.29.215-.602.407-.934.573.808-.203 1.551-.562 2.171-1.049s1.101-1.089 1.406-1.76l-.677-.578z"/>
            <path d="m18.484 7.851-.965-.824c-.018.94-.331 1.858-.905 2.659s-1.389 1.457-2.36 1.898h.005c.216 0 .433-.011.647-.033.908-.316 1.709-.82 2.334-1.466s1.052-1.413 1.245-2.234zM13.225 3.556l-1.151-.984c-1.029.34-1.913.937-2.538 1.713s-.961 1.696-.964 2.638c.004 1.041.414 2.051 1.166 2.871s1.801 1.402 2.984 1.654c1.055-1.099 1.673-2.456 1.764-3.875s-.351-2.826-1.26-4.016zM21.143 7.699c-.004-1.235-.58-2.419-1.603-3.292s-2.408-1.366-3.853-1.369a6.214 6.214 0 0 0-1.954.311l7.045 6.019a4.019 4.019 0 0 0 .364-1.668z"/>
        </symbol>
        <symbol id="icon-client4" viewBox="0 0 30 16">
            <path d="M6.879 6.148h-.001c-.682 0-1.234.498-1.234 1.113v.001c0 .615.553 1.113 1.234 1.113h.001c.682 0 1.234-.498 1.234-1.113v-.001c0-.615-.553-1.113-1.234-1.113zM15.989 5.792c-.002-.854-.379-1.672-1.048-2.275s-1.577-.944-2.523-.946c-.947.002-1.855.341-2.524.945S8.847 4.938 8.845 5.792v4.707s7.144-.717 7.145-4.706v-.001zM3.143 12.044c.002.594.264 1.163.73 1.583s1.097.657 1.756.659c.659-.002 1.29-.238 1.755-.658s.728-.989.73-1.583V8.77s-4.971.5-4.971 3.274zm2.485.587c-.129 0-.255-.034-.362-.099s-.19-.156-.24-.263-.062-.225-.037-.339c.025-.114.087-.218.178-.3s.207-.138.333-.161c.126-.023.257-.011.376.033s.221.12.292.216a.543.543 0 0 1-.08.742.705.705 0 0 1-.461.173v-.002zM10.174 11.576v1.219h-.251v-1.219h.251zm.485.52v.196h-.554v-.196h.554zm.059-.52v.197h-.613v-.197h.613zm1.147.581v.058c0 .093-.013.176-.038.249s-.061.136-.106.188c-.046.051-.1.091-.164.118s-.133.041-.21.041c-.076 0-.146-.014-.21-.041s-.118-.067-.164-.118c-.046-.052-.082-.115-.108-.188s-.038-.157-.038-.249v-.058c0-.093.013-.176.038-.249s.061-.136.106-.188c.046-.052.101-.092.164-.119s.134-.041.21-.041c.077 0 .147.014.21.041s.118.067.164.119c.046.052.082.115.107.188s.039.156.039.249zm-.254.057v-.059c0-.065-.006-.122-.018-.171s-.029-.09-.052-.124-.051-.059-.084-.075c-.033-.017-.071-.026-.113-.026s-.08.009-.113.026c-.032.017-.06.042-.083.075s-.039.075-.051.124a.724.724 0 0 0-.018.171v.059c0 .064.006.121.018.171s.029.091.052.125c.023.033.051.059.084.076s.071.026.113.026a.223.223 0 0 0 .196-.102c.022-.034.039-.076.051-.125s.018-.107.018-.171zm1.069.262c0-.022-.003-.041-.01-.059s-.018-.034-.035-.049c-.017-.015-.042-.03-.073-.044s-.072-.03-.121-.045c-.055-.018-.108-.038-.157-.06s-.093-.048-.131-.078c-.037-.03-.067-.065-.089-.105s-.032-.086-.032-.138c0-.051.011-.097.033-.138s.054-.078.094-.107c.04-.03.088-.053.142-.069a.647.647 0 0 1 .417.025.386.386 0 0 1 .156.133.344.344 0 0 1 .056.193h-.249c0-.036-.008-.067-.023-.094s-.037-.049-.067-.064a.235.235 0 0 0-.112-.023c-.044 0-.08.007-.109.02s-.051.03-.065.053a.126.126 0 0 0-.007.13c.01.017.026.032.047.047s.046.028.076.041c.03.013.065.025.105.038.066.02.125.043.175.068s.093.053.127.085a.313.313 0 0 1 .103.241.295.295 0 0 1-.121.248c-.039.029-.086.051-.14.066a.681.681 0 0 1-.36 0 .506.506 0 0 1-.16-.073.35.35 0 0 1-.157-.302h.252c0 .038.006.07.018.096s.028.047.049.064c.022.016.047.028.077.035s.063.011.099.011c.044 0 .079-.006.107-.018s.049-.029.063-.051a.133.133 0 0 0 .021-.074zm.967-.9v1.219h-.25v-1.219h.25zm.375 0v.197h-.994v-.197h.994zm.961 1.023v.196h-.649v-.196h.649zm-.567-1.023v1.219h-.251v-1.219h.251zm.482.496v.191h-.564v-.191h.564zm.084-.496v.197h-.648v-.197h.648zm.147 0h.455c.093 0 .173.014.24.042s.119.069.156.124.054.122.054.202c0 .065-.011.121-.033.168s-.053.085-.093.116a.49.49 0 0 1-.14.074l-.08.042h-.395l-.002-.196h.294c.044 0 .081-.008.11-.023s.051-.037.065-.065a.202.202 0 0 0 .023-.097c0-.039-.007-.073-.022-.101s-.037-.05-.066-.065-.067-.023-.111-.023h-.203v1.022h-.251v-1.219zm.682 1.218-.278-.543.265-.002.281.533v.012h-.269zm1.318-.434h-.311v-.196h.311c.048 0 .087-.008.117-.023s.052-.039.066-.067a.247.247 0 0 0 0-.197c-.014-.031-.036-.056-.066-.075s-.069-.028-.117-.028h-.224v1.022h-.251v-1.219h.475c.095 0 .177.017.245.052s.121.081.157.141c.036.06.054.129.054.207 0 .079-.018.147-.054.204s-.089.102-.157.133a.588.588 0 0 1-.245.047zm1.448.239v.196h-.649v-.196h.649zm-.567-1.023v1.219h-.251v-1.219h.251zm.483.496v.191h-.564v-.191h.564zm.083-.496v.197h-.648v-.197h.648zm.709 0v1.219h-.25v-1.219h.25zm.375 0v.197h-.994v-.197h.994zm.961 1.023v.196h-.649v-.196h.649zm-.566-1.023v1.219h-.251v-1.219h.251zm.482.496v.191h-.564v-.191h.564zm.083-.496v.197h-.648v-.197h.648zm.148 0h.455c.093 0 .173.014.24.042s.119.069.156.124a.36.36 0 0 1 .054.202c0 .065-.011.121-.033.168s-.053.085-.093.116a.49.49 0 0 1-.14.074l-.08.042h-.395l-.002-.196h.294c.044 0 .081-.008.11-.023s.051-.037.065-.065a.202.202 0 0 0 .023-.097c0-.039-.007-.073-.022-.101s-.037-.05-.066-.065a.246.246 0 0 0-.111-.023h-.203v1.022h-.251v-1.219zm.681 1.218-.278-.543.265-.002.281.533v.012h-.269zm1.051-.318c0-.022-.003-.041-.01-.059s-.018-.034-.035-.049c-.017-.015-.042-.03-.073-.044s-.072-.03-.121-.045c-.055-.018-.108-.038-.157-.06s-.093-.048-.131-.078c-.037-.03-.067-.065-.089-.105s-.032-.086-.032-.138c0-.051.011-.097.033-.138s.054-.078.094-.107c.04-.03.088-.053.142-.069a.647.647 0 0 1 .417.025.386.386 0 0 1 .156.133.344.344 0 0 1 .056.193h-.249c0-.036-.008-.067-.023-.094s-.037-.049-.067-.064a.235.235 0 0 0-.112-.023c-.044 0-.08.007-.109.02s-.051.03-.065.053a.126.126 0 0 0-.007.13c.01.017.026.032.047.047s.046.028.076.041c.03.013.065.025.105.038.066.02.125.043.175.068s.093.053.127.085a.313.313 0 0 1 .103.241.295.295 0 0 1-.121.248c-.039.029-.086.051-.14.066a.681.681 0 0 1-.36 0 .506.506 0 0 1-.16-.073.35.35 0 0 1-.157-.302h.252c0 .038.006.07.018.096s.028.047.049.064c.022.016.047.028.077.035s.063.011.099.011c.044 0 .079-.006.107-.018s.049-.029.063-.051a.133.133 0 0 0 .021-.074z"/>
        </symbol>
        <symbol id="icon-client5" viewBox="0 0 30 16">
            <path d="M7.655 12.678c.07.078.107.176.106.276.004.066-.009.131-.038.191s-.071.114-.126.158a.765.765 0 0 1-.475.128h-.836v-1.752h.819a.754.754 0 0 1 .454.116c.053.04.095.09.122.147s.04.119.036.181a.378.378 0 0 1-.095.268.452.452 0 0 1-.249.137.482.482 0 0 1 .282.15zm-.98-.264h.35a.355.355 0 0 0 .222-.058c.026-.021.047-.048.06-.078s.018-.062.015-.093c.002-.032-.003-.064-.016-.093s-.033-.056-.058-.078a.365.365 0 0 0-.229-.059h-.344v.46zm.606.671c.028-.022.05-.049.065-.08s.021-.064.018-.098c.002-.034-.004-.068-.019-.099s-.037-.059-.066-.081a.387.387 0 0 0-.238-.063h-.367v.482h.372a.4.4 0 0 0 .235-.061zM9.328 13.431l-.455-.685h-.171v.685H8.31v-1.752h.742a.785.785 0 0 1 .516.149c.104.095.166.22.176.353s-.033.265-.121.372a.625.625 0 0 1-.354.178l.485.7h-.426zm-.626-.923h.32c.222 0 .334-.088.334-.265a.242.242 0 0 0-.082-.197.372.372 0 0 0-.252-.071h-.324l.004.533zM11.469 13.079h-.781l-.138.353h-.411l.717-1.732h.444l.714 1.732h-.411l-.135-.353zm-.104-.266-.285-.74-.285.74h.57zM14.15 13.431h-.389l-.872-1.191v1.191h-.388v-1.752h.388l.872 1.198v-1.198h.389v1.752zM16.369 13.012a.805.805 0 0 1-.352.309 1.243 1.243 0 0 1-.547.11h-.692v-1.752h.692c.189-.004.377.033.547.108a.798.798 0 0 1 .352.306.937.937 0 0 1 0 .92zm-.445-.042c.111-.116.172-.265.172-.418s-.061-.302-.172-.418a.727.727 0 0 0-.487-.149h-.27v1.134h.27a.721.721 0 0 0 .487-.149zM11.713 1.933s5.019 1.706 4.913 4.174v4.175s-5.015-1.707-4.911-4.175l-.002-4.174zM21.097 9.306a7.367 7.367 0 0 1 3.189-1.058V6.941c-1.319.458-2.438 1.287-3.189 2.365z"/>
            <path d="M20.527 9.699c.776-1.406 2.121-2.492 3.758-3.033V2.9s-7.148 2.43-6.997 5.945v5.945s.319-.109.82-.312c0-.19 0-.382.023-.574.148-1.632 1.01-3.144 2.396-4.204z"/>
            <path d="M19.848 11.908a5.6 5.6 0 0 1 .25-1.217c-.863.915-1.386 2.051-1.495 3.248-.01.113-.016.226-.019.342a21.66 21.66 0 0 0 1.375-.652 5.535 5.535 0 0 1-.111-1.721zM20.132 11.929a5.301 5.301 0 0 0 .088 1.559c1.953-1.052 4.147-2.677 4.063-4.642v-.171c-1.395.141-2.701.69-3.716 1.563a5.361 5.361 0 0 0-.435 1.691z"/>
        </symbol>
        <symbol id="icon-client6" viewBox="0 0 30 16">
            <path d="M15.294 7.841a.84.84 0 0 1-.173-.569v-.825c0-.253.057-.445.172-.577s.312-.197.591-.196c.263 0 .449.056.559.168.12.143.179.317.165.494v.194h-.47v-.196a.95.95 0 0 0-.014-.192.183.183 0 0 0-.067-.114.264.264 0 0 0-.17-.044.292.292 0 0 0-.179.047.223.223 0 0 0-.078.126.933.933 0 0 0-.018.204v1.001a.513.513 0 0 0 .06.281c.023.03.056.053.094.068s.08.02.121.016c.06.004.12-.012.166-.045a.204.204 0 0 0 .07-.122c.011-.066.016-.134.015-.201v-.203h.47v.186a.759.759 0 0 1-.162.519c-.108.123-.292.184-.562.184s-.475-.065-.59-.201zM17.25 7.849c-.119-.128-.178-.316-.178-.563v-.868c0-.245.059-.431.178-.557s.317-.189.595-.188c.276 0 .474.063.592.188s.179.311.179.557v.868c0 .245-.06.433-.181.562s-.317.194-.59.194-.476-.065-.595-.193zm.815-.208a.474.474 0 0 0 .056-.257V6.321a.484.484 0 0 0-.055-.252c-.024-.03-.057-.054-.096-.069s-.082-.02-.124-.015c-.042-.005-.085 0-.124.015s-.072.039-.097.069a.457.457 0 0 0-.056.252v1.068a.474.474 0 0 0 .056.257c.027.027.061.049.099.064a.33.33 0 0 0 .242 0 .292.292 0 0 0 .099-.064v-.005zM19.182 5.699h.506l.38 1.601.389-1.601h.492l.05 2.312h-.364l-.039-1.607-.376 1.607h-.292l-.389-1.612-.036 1.612h-.368l.046-2.312zM21.567 5.699h.788c.454 0 .681.219.681.656 0 .419-.239.628-.717.628h-.268V8.01h-.486l.003-2.312zm.673.988c.048.005.097.001.143-.011s.089-.034.124-.062a.375.375 0 0 0 .07-.261.71.71 0 0 0-.023-.21c-.007-.023-.019-.045-.036-.063s-.038-.035-.061-.047a.5.5 0 0 0-.217-.037h-.189v.691h.189zM23.737 5.699h.522l.536 2.312h-.453l-.106-.533h-.466l-.109.533h-.46l.536-2.312zm.446 1.511-.182-.97-.182.97h.364zM25.228 5.699h.34l.652 1.319V5.699h.404v2.312H26.3l-.656-1.377v1.377h-.417l.001-2.312zM27.569 7.129l-.542-1.427h.456l.331.917.31-.917h.446l-.535 1.427v.881h-.467v-.881zM16.045 9.021v.121h-.397v.939h-.166v-.939h-.399v-.121h.962zM17.289 10.081h-.128a.056.056 0 0 1-.036-.01.053.053 0 0 1-.021-.024l-.115-.252h-.551l-.115.252a.072.072 0 0 1-.017.029.056.056 0 0 1-.036.01h-.128l.486-1.06h.169l.492 1.056zm-.805-.393h.459l-.195-.431a.919.919 0 0 1-.036-.1l-.018.056-.017.044-.193.431zM18.128 9.977h.091a.529.529 0 0 0 .078-.013.556.556 0 0 0 .07-.019l.065-.026v-.238h-.195c-.005 0-.01 0-.014-.002s-.009-.004-.012-.007c-.003-.002-.006-.005-.007-.009l-.002-.011v-.081h.377v.406a.683.683 0 0 1-.205.086.972.972 0 0 1-.264.029.748.748 0 0 1-.245-.039.596.596 0 0 1-.195-.111.496.496 0 0 1-.17-.388.496.496 0 0 1 .169-.39.574.574 0 0 1 .195-.11.818.818 0 0 1 .261-.039.752.752 0 0 1 .251.036c.034.011.067.025.097.042s.058.035.085.055l-.047.065c-.004.006-.009.011-.016.015s-.014.005-.022.006a.061.061 0 0 1-.03-.008.764.764 0 0 1-.048-.025.476.476 0 0 0-.155-.053.732.732 0 0 0-.312.02.366.366 0 0 0-.233.216.5.5 0 0 0 0 .353.421.421 0 0 0 .239.217.567.567 0 0 0 .193.021zM19.678 9.96h.531v.121h-.694v-1.06h.166l-.004.939zM20.762 10.081h-.166v-1.06h.166v1.06zM21.381 9.026a.07.07 0 0 1 .025.019l.711.799v-.827h.145v1.064h-.084a.074.074 0 0 1-.036-.006.086.086 0 0 1-.026-.02l-.71-.798v.825h-.139v-1.06h.087a.08.08 0 0 1 .027.005zM23.487 9.021v.117h-.589v.35h.478V9.6h-.478v.362h.589v.117h-.761V9.021h.761zM6.056 2.474l7.386 1.81v6.342L6.056 8.817V2.475zm-.474-.541v7.191l8.333 2.042v-7.19L5.582 1.933z"/>
            <path d="m10.048 14.505-8.334-2.044v-7.19l8.334 2.043v7.191zM5.72 2.392l7.29 1.787-3.1 2.676-7.291-1.788L5.72 2.392zm-.138-.459L1.714 5.27l8.334 2.043 3.867-3.337-8.333-2.043zM10.517 14.1l3.398-2.933-3.398-.833V14.1z"/>
        </symbol>
        <symbol id="icon-clock1" viewBox="0 0 16 16">
            <path fill="#2e2f42" d="M15.648 7.651a7.654 7.654 0 0 0-15.305.003 7.651 7.651 0 0 0 5.325 7.288.333.333 0 0 0 .264-.033.322.322 0 0 0 .142-.178l1.932-6.125a.957.957 0 0 0-.009-1.913.942.942 0 0 0-.41.096L5.034 4.236a.319.319 0 0 0-.451.451l2.552 2.555a.939.939 0 0 0 .268 1.155l-1.841 5.836a7.022 7.022 0 1 1 5.285-.175l-.199-.937a.32.32 0 0 0-.524-.172l-1.918 1.713a.318.318 0 0 0 .116.542l2.449.782a.318.318 0 0 0 .409-.37l-.196-.92a7.627 7.627 0 0 0 4.664-7.045zm-7.652-.319a.32.32 0 1 1 0 .638.32.32 0 0 1 0-.638zm1.05 7.432 1.092-.974.301 1.42-1.393-.446z" style="fill:var(--color2, #2e2f42)"/>
            <path fill="#4d5ae5" d="M7.677 1.593v.638a.32.32 0 0 0 .638 0v-.638a.32.32 0 0 0-.638 0zM1.938 7.332a.32.32 0 0 0 0 .638h.638a.32.32 0 0 0 0-.638h-.638zM14.054 7.969a.32.32 0 0 0 0-.638h-.638a.32.32 0 0 0 0 .638h.638z" style="fill:var(--color1, #4d5ae5)"/>
        </symbol>
        <symbol id="icon-diagram1" viewBox="0 0 16 16">
            <path fill="#4d5ae5" d="M7.463 7.482h.533v2.399h-.533V7.482zM9.595 8.548h.533v1.333h-.533V8.548zM5.331 9.348h.533v.533h-.533v-.533zM3.731 9.081h.533v.8h-.533v-.8z" style="fill:var(--color1, #4d5ae5)"/>
            <path fill="#2e2f42" d="M.8 14.145h12.793a.8.8 0 0 0 .8-.8v-1.066a.8.8 0 0 0-.8-.8h-.267V4.832l1.514-1.434a.805.805 0 0 0 .931-1.283.804.804 0 0 0-1.303.902l-1.141 1.081v-.615a.8.8 0 0 0-.8-.8H1.866a.8.8 0 0 0-.8.8v7.996H.799a.8.8 0 0 0-.8.8v1.066a.8.8 0 0 0 .8.8zM15.192 2.418a.267.267 0 1 1 0 .534.267.267 0 0 1 0-.534zM1.599 3.484c0-.147.119-.267.267-.267h10.661c.147 0 .267.119.267.267v1.119l-.533.507V4.017a.267.267 0 0 0-.267-.267H2.399a.267.267 0 0 0-.267.267v6.663c0 .147.119.267.267.267h9.595a.267.267 0 0 0 .267-.267V5.843l.533-.505v6.142H1.6V3.484zm2.399 3.465a.799.799 0 1 0 .554 1.374l.926.465a.266.266 0 0 0 .318-.061l1.969-2.216 1.936 1.451c.104.078.249.07.343-.02l1.683-1.594v4.066H2.665v-6.13h9.062v1.33L9.841 7.4 7.889 5.936a.267.267 0 0 0-.359.036L5.534 8.218l-.746-.373a.777.777 0 0 0 .01-.097.8.8 0 0 0-.8-.8zm.266.8a.267.267 0 1 1-.534 0 .267.267 0 0 1 .534 0zm1.6 4.264h2.665v.267a.267.267 0 0 1-.267.267H6.13a.267.267 0 0 1-.267-.267v-.267zm-5.331.267c0-.147.119-.267.267-.267h4.531v.267a.8.8 0 0 0 .8.8h2.132a.8.8 0 0 0 .8-.8v-.267h4.531c.147 0 .267.119.267.267v1.066a.267.267 0 0 1-.267.267H.801a.267.267 0 0 1-.267-.267V12.28z" style="fill:var(--color2, #2e2f42)"/>
        </symbol>
        <symbol id="icon-facebook1" viewBox="0 0 16 16">
            <path fill="#f4f4fd" d="M10.665 2.657h1.461V.113A18.755 18.755 0 0 0 9.998 0C7.892 0 6.449 1.325 6.449 3.759V6H4.125v2.844h2.324V16h2.849V8.845h2.23l.354-2.844H9.297V4.042c.001-.822.222-1.385 1.367-1.385z" style="fill:var(--color4, #f4f4fd)"/>
        </symbol>
        <symbol id="icon-instagram2" viewBox="0 0 16 16">
            <path fill="#f4f4fd" d="M15.984 4.704c-.037-.85-.175-1.435-.372-1.941a3.904 3.904 0 0 0-.925-1.419 3.944 3.944 0 0 0-1.416-.922C12.762.225 12.18.088 11.33.05 10.473.009 10.202 0 8.029 0S5.585.009 4.731.047c-.85.037-1.435.175-1.941.372a3.904 3.904 0 0 0-1.419.925c-.406.4-.722.885-.922 1.416-.197.51-.334 1.091-.372 1.941-.041.856-.05 1.128-.05 3.301s.009 2.444.047 3.297c.037.85.175 1.435.372 1.941.203.538.519 1.019.925 1.419.4.406.885.722 1.416.922.51.197 1.091.334 1.941.372.853.038 1.125.047 3.298.047s2.444-.009 3.298-.047c.85-.037 1.435-.175 1.941-.372a4.095 4.095 0 0 0 2.341-2.341c.197-.509.334-1.091.372-1.941.038-.853.047-1.125.047-3.297s-.003-2.444-.041-3.298zm-1.441 6.532c-.034.781-.166 1.203-.275 1.485a2.655 2.655 0 0 1-1.519 1.519c-.281.109-.706.241-1.485.275-.844.038-1.097.047-3.232.047s-2.391-.009-3.232-.047c-.781-.034-1.203-.165-1.485-.275a2.453 2.453 0 0 1-.919-.597 2.477 2.477 0 0 1-.597-.919c-.109-.281-.241-.706-.275-1.485-.038-.844-.047-1.097-.047-3.232s.009-2.391.047-3.232c.034-.781.166-1.203.275-1.485.128-.347.331-.663.6-.919.259-.266.572-.469.919-.597.281-.109.706-.241 1.485-.275.844-.037 1.097-.047 3.232-.047 2.138 0 2.391.009 3.232.047.781.034 1.203.166 1.485.275.347.128.663.331.919.597.266.259.469.572.597.919.109.281.241.706.275 1.485.037.844.047 1.097.047 3.232s-.009 2.385-.047 3.229z" style="fill:var(--color4, #f4f4fd)"/>
            <path fill="#f4f4fd" d="M8.03 3.891a4.111 4.111 0 0 0 0 8.22 4.111 4.111 0 0 0 0-8.22zm0 6.777a2.667 2.667 0 1 1 .001-5.333 2.667 2.667 0 0 1-.001 5.333zM13.262 3.729a.96.96 0 1 1-1.92 0 .96.96 0 0 1 1.92 0z" style="fill:var(--color4, #f4f4fd)"/>
        </symbol>
        <symbol id="icon-linkedin1" viewBox="0 0 16 16">
            <path fill="#f4f4fd" d="M15.996 16v-.001H16v-5.868c0-2.871-.618-5.082-3.974-5.082-1.613 0-2.696.885-3.138 1.725h-.047V5.317H5.659v10.682h3.313V10.71c0-1.393.264-2.739 1.989-2.739 1.699 0 1.725 1.589 1.725 2.829v5.201h3.31zM.264 5.318h3.317V16H.264V5.318zM1.921 0C.86 0 0 .861 0 1.921S.861 3.86 1.921 3.86c1.061 0 1.921-.879 1.921-1.939S2.981 0 1.921 0z" style="fill:var(--color4, #f4f4fd)"/>
        </symbol>
        <symbol id="icon-twitter1" viewBox="0 0 16 16">
            <path fill="#f4f4fd" d="M16 3.039a6.839 6.839 0 0 1-1.89.518 3.262 3.262 0 0 0 1.443-1.813 6.555 6.555 0 0 1-2.08.794 3.28 3.28 0 0 0-5.674 2.243c0 .26.022.51.076.748a9.284 9.284 0 0 1-6.761-3.431 3.285 3.285 0 0 0 1.008 4.384A3.24 3.24 0 0 1 .64 6.078v.036a3.295 3.295 0 0 0 2.628 3.223 3.274 3.274 0 0 1-.86.108 2.9 2.9 0 0 1-.621-.056 3.311 3.311 0 0 0 3.065 2.285 6.59 6.59 0 0 1-4.067 1.399c-.269 0-.527-.012-.785-.045A9.234 9.234 0 0 0 5.032 14.5c6.036 0 9.336-5 9.336-9.334 0-.145-.005-.285-.012-.424A6.544 6.544 0 0 0 16 3.039z" style="fill:var(--color4, #f4f4fd)"/>
        </symbol>
        <symbol id="icon-close-black" viewBox="0 0 60 60">
            <path d="M60 6.043l-6.043-6.043-23.957 23.957-23.957-23.957-6.043 6.043 23.957 23.957-23.957 23.957 6.043 6.043 23.957-23.957 23.957 23.957 6.043-6.043-23.957-23.957 23.957-23.957z"></path>
        </symbol>
        <symbol id="icon-send" viewBox="0 0 72 60">
            <path d="M72 0l-72 33.75 23.010 7.101 35.49-27.726-26.994 30.348 0.021 0.009-0.027-0.009v16.527l12.903-12.546 16.35 5.046 11.247-52.5z"></path>
        </symbol>
       <symbol id="icon-mail" viewBox="0 0 80 60">
            <path d="M70 0h-60c-4.125 0-7.465 3.375-7.465 7.5l-0.035 45c0 4.125 3.375 7.5 7.5 7.5h60c4.125 0 7.5-3.375 7.5-7.5v-45c0-4.125-3.375-7.5-7.5-7.5zM68.5 15.94l-26.51 16.57c-0.565 0.353-1.252 0.562-1.987 0.562s-1.422-0.209-2.004-0.571l0.016 0.009-26.515-16.575c-0.944-0.564-1.566-1.581-1.566-2.743 0-1.759 1.426-3.185 3.185-3.185 0.654 0 1.262 0.197 1.768 0.535l-0.012-0.007 25.125 15.715 25.125-15.715c0.494-0.331 1.102-0.528 1.756-0.528 1.759 0 3.185 1.426 3.185 3.185 0 1.162-0.622 2.179-1.552 2.735l-0.014 0.008z"></path>
        </symbol>
        <symbol id="icon-person" viewBox="0 0 60 60">
            <path d="M30 30c5.523 0 10-4.477 10-10s-4.477-10-10-10v0c-5.523 0-10 4.477-10 10s4.477 10 10 10v0zM30 35c-6.677 0-20 3.35-20 10v2.5c0 1.373 1.123 2.5 2.5 2.5h35c1.373 0 2.5-1.127 2.5-2.5v-2.5c0-6.65-13.327-10-20-10z"></path>
        </symbol>
        <symbol id="icon-phone" viewBox="0 0 60 60">
            <path d="M36.815 34.662l-4.595-0.525c-0.126-0.016-0.271-0.024-0.418-0.024-0.996 0-1.897 0.404-2.549 1.057l-3.328 3.328c-5.161-2.662-9.262-6.763-11.854-11.771l-0.071-0.152 3.35-3.348c0.652-0.652 1.055-1.552 1.055-2.546 0-0.148-0.009-0.293-0.026-0.437l0.002 0.017-0.525-4.56c-0.216-1.812-1.744-3.203-3.596-3.203-0.001 0-0.003 0-0.004 0h-3.13c-2.045 0-3.745 1.7-3.618 3.745 0.957 15.45 13.315 27.79 28.748 28.75 2.045 0.125 3.745-1.575 3.745-3.62v-3.13c0-0.006 0-0.013 0-0.020 0-1.839-1.385-3.355-3.168-3.561l-0.017-0.002z"></path>
        </symbol>
        <symbol id="icon-clic" viewBox="0 0 75 60">
            <path d="M63.345 1.913c1.236-1.195 2.921-1.931 4.778-1.931 3.763 0 6.82 3.022 6.877 6.771l0 0.005c0.001 0.053 0.002 0.115 0.002 0.178 0 1.809-0.69 3.457-1.822 4.695l0.005-0.005-36.705 46.155c-1.264 1.365-3.066 2.216-5.067 2.216-0.928 0-1.813-0.183-2.622-0.515l0.046 0.017c-0.894-0.37-1.657-0.887-2.295-1.53l-0-0-24.345-24.472c-1.358-1.27-2.204-3.072-2.204-5.072 0-0.94 0.187-1.837 0.526-2.654l-0.017 0.046c1.057-2.564 3.537-4.336 6.431-4.336 0.033 0 0.066 0 0.099 0.001l-0.005-0c1.946 0.036 3.689 0.876 4.916 2.201l0.004 0.004 19.267 19.365 31.95-40.935c0.061-0.073 0.122-0.139 0.187-0.202l-0.007-0.001z"></path>
        </symbol>
        <symbol id="icon-send" viewBox="0 0 24 20"><path d="M38.4 0 0 18l12.272 3.788L31.2 7 16.803 23.186l.012.004-.014-.004V32l6.882-6.691L32.401 28l6-28z"/></symbol>
        <symbol id="icon-menu-hamburger" viewBox="0 0 32 22">
            <path stroke-linejoin="round" stroke-linecap="round" stroke-miterlimit="4" stroke-width="8.1818" d="M3.676 54.663h80.558M3.676 29.277h80.558M3.676 3.895h80.558"></path>
        </symbol>
    </defs>
</svg>